<svg width="651" height="153" viewBox="0 0 651 153" fill="none" xmlns="http://www.w3.org/2000/svg">
<path d="M651 0H0V153H651V0Z" fill="white"/>
<path d="M97.9101 83.9566L110.378 40H129.513L125.642 53.6281C125.602 53.7064 125.568 53.7886 125.543 53.8735L115.383 89.8596H124.867C120.906 99.9496 117.806 107.86 115.567 113.592C98.0744 113.393 93.1683 100.618 97.463 85.5024L97.9101 83.9566ZM115.635 113.592L138.699 79.7397H128.913L137.426 58.0554C152.038 59.6129 158.888 71.3292 154.861 85.4985C150.536 100.743 133.032 113.592 115.991 113.592H115.635Z" fill="#F15E2C"/>
<path d="M230.705 55.4773V90.3864H223.409V61.4773H209.295V90.3864H202V55.4773H230.705Z" fill="#F15E2C"/>
<path d="M269.811 72.9318C269.811 76.7386 269.089 79.9773 267.646 82.6477C266.214 85.3182 264.266 87.358 261.8 88.767C259.334 90.1648 256.555 90.8636 253.464 90.8636C250.362 90.8636 247.578 90.1591 245.112 88.75C242.646 87.3409 240.697 85.3011 239.266 82.6307C237.834 79.9489 237.118 76.7159 237.118 72.9318C237.118 69.125 237.834 65.8864 239.266 63.2159C240.697 60.5455 242.646 58.5114 245.112 57.1136C247.578 55.7045 250.362 55 253.464 55C256.555 55 259.334 55.7045 261.8 57.1136C264.266 58.5114 266.214 60.5455 267.646 63.2159C269.089 65.8864 269.811 69.125 269.811 72.9318ZM262.328 72.9318C262.328 69.2273 261.521 66.4034 259.908 64.4602C258.294 62.5057 256.146 61.5284 253.464 61.5284C250.783 61.5284 248.635 62.5057 247.021 64.4602C245.408 66.4034 244.601 69.2273 244.601 72.9318C244.601 76.625 245.408 79.4489 247.021 81.4034C248.635 83.358 250.783 84.3352 253.464 84.3352C256.146 84.3352 258.294 83.358 259.908 81.4034C261.521 79.4489 262.328 76.625 262.328 72.9318Z" fill="#F15E2C"/>
<path d="M273.386 98.8068V84.5057H275.756C276.563 83.9261 277.301 83.108 277.972 82.0511C278.653 80.983 279.233 79.5114 279.71 77.6364C280.188 75.75 280.523 73.2841 280.716 70.2386L281.705 55.4773H304.801V84.5057H308.619V98.7727H301.528V90.3864H280.477V98.8068H273.386ZM284.278 84.5057H297.71V61.5625H288.352L287.807 70.2386C287.58 73.6932 287.153 76.5739 286.528 78.8807C285.903 81.1875 285.153 83.0625 284.278 84.5057Z" fill="#F15E2C"/>
<path d="M312.855 98.8068V84.5057H315.224C316.031 83.9261 316.77 83.108 317.44 82.0511C318.122 80.983 318.702 79.5114 319.179 77.6364C319.656 75.75 319.991 73.2841 320.185 70.2386L321.173 55.4773H344.27V84.5057H348.088V98.7727H340.997V90.3864H319.946V98.8068H312.855ZM323.747 84.5057H337.179V61.5625H327.821L327.276 70.2386C327.048 73.6932 326.622 76.5739 325.997 78.8807C325.372 81.1875 324.622 83.0625 323.747 84.5057Z" fill="#F15E2C"/>
<path d="M352.575 90.3864V55.4773H376.098V61.5625H359.956V69.8807H374.888V75.9659H359.956V84.3011H376.166V90.3864H352.575Z" fill="#F15E2C"/>
<path d="M381.966 90.3864V55.4773H395.739C398.386 55.4773 400.642 55.983 402.506 56.9943C404.369 57.9943 405.79 59.3864 406.767 61.1705C407.756 62.9432 408.25 64.9886 408.25 67.3068C408.25 69.625 407.75 71.6705 406.75 73.4432C405.75 75.2045 404.301 76.5852 402.403 77.5852C400.517 78.5739 398.233 79.0682 395.551 79.0682H389.347V90.3864H381.966ZM389.347 73.1534H394.358C396.472 73.1534 398.045 72.6136 399.08 71.5341C400.125 70.4432 400.648 69.0341 400.648 67.3068C400.648 65.5682 400.125 64.1705 399.08 63.1136C398.045 62.0455 396.46 61.5114 394.324 61.5114H389.347V73.1534Z" fill="#F15E2C"/>
<path d="M439.635 55.4773V69.8466H443.521L451.158 55.4773H460.209L449.982 71.9261L460.72 90.3864H451.908L444.527 76.6648H439.635V90.3864H432.476V76.6648H427.703L420.135 90.3864H411.391L422.334 71.9773L411.851 55.4773H420.936L428.777 69.8466H432.476V55.4773H439.635Z" fill="#F15E2C"/>
<path d="M471.139 90.3864H463.23L475.281 55.4773H484.793L496.827 90.3864H488.918L486.327 82.4261H473.73L471.139 90.3864ZM475.605 76.6648H484.469L480.173 63.4545H479.901L475.605 76.6648Z" fill="#F15E2C"/>
<path d="M495.386 61.5625V55.4773H524.057V61.5625H513.369V90.3864H506.074V61.5625H495.386Z" fill="#F15E2C"/>
<path d="M536.278 68.3807H541.955C544.716 68.3807 547.102 68.8295 549.114 69.7273C551.125 70.6136 552.676 71.8693 553.767 73.4943C554.858 75.1193 555.398 77.0341 555.386 79.2386C555.398 81.4318 554.858 83.3693 553.767 85.0511C552.676 86.7216 551.125 88.0284 549.114 88.9716C547.102 89.9148 544.716 90.3864 541.955 90.3864H528.915V55.4773H536.278V68.3807ZM536.278 74.2102V84.4545H541.955C543.943 84.4545 545.46 83.9318 546.506 82.8864C547.562 81.8409 548.085 80.6023 548.074 79.1705C548.085 77.7841 547.562 76.6136 546.506 75.6591C545.46 74.6932 543.943 74.2102 541.955 74.2102H536.278Z" fill="#F15E2C"/>
</svg>
