<svg width="21" height="15" viewBox="0 0 21 15" fill="none" xmlns="http://www.w3.org/2000/svg">
<path d="M18.6946 0.453488C19.5962 0.697674 20.3152 1.43023 20.5549 2.34884C21 4.02326 21 7.5 21 7.5C21 7.5 21 10.9884 20.5549 12.6512C20.3152 13.5698 19.5962 14.3023 18.6946 14.5465C17.0625 15 10.5 15 10.5 15C10.5 15 3.9375 15 2.30543 14.5465C1.4038 14.3023 0.684783 13.5698 0.445109 12.6512C0 10.9767 0 7.5 0 7.5C0 7.5 0 4.02326 0.433696 2.36046C0.67337 1.44186 1.39239 0.709303 2.29402 0.465116C3.92609 0.0116286 10.5 0 10.5 0C10.5 0 17.0625 0 18.6946 0.453488Z" fill="black"/>
</svg>
