<svg width="651" height="153" viewBox="0 0 651 153" fill="none" xmlns="http://www.w3.org/2000/svg">
<rect width="651" height="153" fill="#F96854"/>
<path d="M154.034 94.3864H168.949C176.79 94.3864 180.966 90.2955 180.966 84.7386C180.966 79.5739 177.267 76.4545 173.295 76.267V75.9261C176.926 75.108 179.602 72.5341 179.602 68.4261C179.602 63.1932 175.716 59.4773 168.011 59.4773H154.034V94.3864ZM161.415 88.3523V79.0795H167.602C171.148 79.0795 173.347 81.125 173.347 84.0057C173.347 86.6307 171.557 88.3523 167.432 88.3523H161.415ZM161.415 74.0852V65.4432H167.023C170.295 65.4432 172.153 67.1307 172.153 69.6534C172.153 72.4148 169.903 74.0852 166.886 74.0852H161.415Z" fill="white"/>
<path d="M185.288 94.3864H208.879V88.3011H192.669V79.9659H207.601V73.8807H192.669V65.5625H208.811V59.4773H185.288V94.3864Z" fill="white"/>
<path d="M245 71.6989C244.029 63.6364 237.926 59 229.847 59C220.625 59 213.585 65.5114 213.585 76.9318C213.585 88.3182 220.506 94.8636 229.847 94.8636C238.796 94.8636 244.199 88.9148 245 82.4886L237.534 82.4545C236.835 86.1875 233.904 88.3352 229.966 88.3352C224.665 88.3352 221.068 84.3977 221.068 76.9318C221.068 69.6705 224.614 65.5284 230.017 65.5284C234.057 65.5284 236.972 67.8636 237.534 71.6989H245Z" fill="white"/>
<path d="M281.892 76.9318C281.892 65.5114 274.801 59 265.546 59C256.239 59 249.199 65.5114 249.199 76.9318C249.199 88.3011 256.239 94.8636 265.546 94.8636C274.801 94.8636 281.892 88.3523 281.892 76.9318ZM274.409 76.9318C274.409 84.3295 270.898 88.3352 265.546 88.3352C260.176 88.3352 256.682 84.3295 256.682 76.9318C256.682 69.5341 260.176 65.5284 265.546 65.5284C270.898 65.5284 274.409 69.5341 274.409 76.9318Z" fill="white"/>
<path d="M286.88 59.4773V94.3864H294.039V71.5795H294.329L303.363 94.2159H308.238L317.272 71.6648H317.562V94.3864H324.721V59.4773H315.618L306.005 82.9318H305.596L295.982 59.4773H286.88Z" fill="white"/>
<path d="M330.322 94.3864H353.913V88.3011H337.702V79.9659H352.634V73.8807H337.702V65.5625H353.844V59.4773H330.322V94.3864Z" fill="white"/>
<path d="M375.879 94.3864L378.47 86.4261H391.066L393.657 94.3864H401.566L389.532 59.4773H380.021L367.97 94.3864H375.879ZM380.345 80.6648L384.64 67.4545H384.913L389.208 80.6648H380.345Z" fill="white"/>
<path d="M415.917 94.3864H423.298V83.0682H429.502C437.531 83.0682 442.201 78.2784 442.201 71.3068C442.201 64.3693 437.616 59.4773 429.69 59.4773H415.917V94.3864ZM423.298 77.1534V65.5114H428.275C432.537 65.5114 434.599 67.8295 434.599 71.3068C434.599 74.767 432.537 77.1534 428.309 77.1534H423.298Z" fill="white"/>
<path d="M448.501 94.3864L451.092 86.4261H463.689L466.28 94.3864H474.189L462.155 59.4773H452.643L440.592 94.3864H448.501ZM452.967 80.6648L457.263 67.4545H457.535L461.831 80.6648H452.967Z" fill="white"/>
<path d="M472.268 65.5625H482.956V94.3864H490.251V65.5625H500.939V59.4773H472.268V65.5625Z" fill="white"/>
<path d="M505.18 94.3864H512.561V82.0114H517.947L524.561 94.3864H532.709L525.294 80.8182C529.266 79.1136 531.464 75.6534 531.464 70.8807C531.464 63.9432 526.879 59.4773 518.953 59.4773H505.18V94.3864ZM512.561 76.0795V65.5114H517.538C521.8 65.5114 523.862 67.4034 523.862 70.8807C523.862 74.3409 521.8 76.0795 517.572 76.0795H512.561Z" fill="white"/>
<path d="M568.28 76.9318C568.28 65.5114 561.189 59 551.933 59C542.626 59 535.587 65.5114 535.587 76.9318C535.587 88.3011 542.626 94.8636 551.933 94.8636C561.189 94.8636 568.28 88.3523 568.28 76.9318ZM560.797 76.9318C560.797 84.3295 557.286 88.3352 551.933 88.3352C546.564 88.3352 543.07 84.3295 543.07 76.9318C543.07 69.5341 546.564 65.5284 551.933 65.5284C557.286 65.5284 560.797 69.5341 560.797 76.9318Z" fill="white"/>
<path d="M602.466 59.4773H595.119V81.4318H594.813L579.744 59.4773H573.267V94.3864H580.648V72.4148H580.904L596.091 94.3864H602.466V59.4773Z" fill="white"/>
<rect x="48" y="48" width="10" height="57" fill="#052D49"/>
<circle cx="86.5" cy="69.5" r="21.5" fill="white"/>
</svg>
