<svg xmlns="http://www.w3.org/2000/svg" fill="none" viewBox="0 0 16 16">
  <path fill="currentColor"
    d="M8 14.5a4.5 4.5 0 0 1-3.9-2.22H2.75a.73.73 0 0 1-.75-.73q0-.32.22-.53a.7.7 0 0 1 .53-.21h.83q-.06-.38-.07-.74l-.01-.74h-.75A.73.73 0 0 1 2 8.59q0-.3.22-.53a.7.7 0 0 1 .53-.2h.75l.01-.75q0-.36.07-.74h-.83A.73.73 0 0 1 2 5.65q0-.32.22-.53a.7.7 0 0 1 .53-.21H4.1q.26-.43.6-.8.32-.36.75-.64l-.7-.7a.7.7 0 0 1-.2-.51q0-.3.23-.53.2-.2.52-.2t.53.2L6.9 2.8a3.5 3.5 0 0 1 2.14 0l1.13-1.09a.7.7 0 0 1 .51-.2q.3 0 .54.22.2.2.2.52a.7.7 0 0 1-.2.52l-.72.7a4 4 0 0 1 1.4 1.43h1.35a.73.73 0 0 1 .75.74q0 .3-.22.52a.7.7 0 0 1-.53.21h-.82l.06.74.01.74h.75a.73.73 0 0 1 .75.74.73.73 0 0 1-.75.74h-.75v.74l-.07.74h.82a.73.73 0 0 1 .75.74q0 .3-.22.52a.7.7 0 0 1-.53.21H11.9q-.6 1.05-1.64 1.63-1.05.6-2.26.59m-.75-3.7h1.5a.73.73 0 0 0 .75-.73q0-.32-.22-.53a.7.7 0 0 0-.53-.21h-1.5a.73.73 0 0 0-.75.74q0 .3.22.52.21.22.53.22m0-2.95h1.5a.73.73 0 0 0 .75-.74q0-.3-.22-.52a.7.7 0 0 0-.53-.21h-1.5a.73.73 0 0 0-.75.73q0 .32.22.53.21.21.53.21" />
</svg>