<svg fill="none" xmlns="http://www.w3.org/2000/svg" viewBox="0 0 24 24">
  <path
    d="M16 8V5.2c0-1.1 0-1.7-.2-2.1a2 2 0 0 0-.9-.9c-.4-.2-1-.2-2.1-.2H5.2c-1.1 0-1.7 0-2.1.2a2 2 0 0 0-.9.9C2 3.5 2 4 2 5.2v7.6c0 1.1 0 1.7.2 2.1.2.4.5.7.9.9.4.2 1 .2 2.1.2H8m3.2 6h7.6c1.1 0 1.7 0 2.1-.2.4-.2.7-.5.9-.9.2-.4.2-1 .2-2.1v-7.6c0-1.1 0-1.7-.2-2.1a2 2 0 0 0-.9-.9c-.4-.2-1-.2-2.1-.2h-7.6c-1.1 0-1.7 0-2.1.2a2 2 0 0 0-.9.9c-.2.4-.2 1-.2 2.1v7.6c0 1.1 0 1.7.2 2.1.2.4.5.7.9.9.4.2 1 .2 2.1.2Z"
    stroke="currentColor" stroke-linecap="round" stroke-linejoin="round" vector-effect="non-scaling-stroke"></path>
</svg>