<svg fill="none" xmlns="http://www.w3.org/2000/svg" viewBox="0 0 32 32">
  <path
    d="M16 2a14 14 0 1 1 0 28 14 14 0 0 1 0-28m2.1 8.6c1.04 0 1.88-.73 1.88-1.8s-.84-1.79-1.88-1.79-1.88.72-1.88 1.8c0 1.06.84 1.79 1.88 1.79m.37 11.25c0-.21.07-.77.03-1.09l-1.65 1.9c-.34.35-.76.6-.96.54a.4.4 0 0 1-.26-.46l2.74-8.66c.22-1.1-.4-2.1-1.7-2.23-1.38 0-3.4 1.4-4.64 3.17 0 .22-.04.74 0 1.06l1.65-1.9c.34-.35.73-.6.93-.53a.4.4 0 0 1 .25.5l-2.72 8.62c-.31 1 .28 2 1.72 2.22 2.12 0 3.37-1.37 4.6-3.14"
    fill="currentColor" />
</svg>