<svg fill="none" xmlns="http://www.w3.org/2000/svg" viewBox="0 0 16 16">
  <path
    d="M8.58 1a.5.5 0 0 1 .49.42l.25 1.48a.5.5 0 0 0 .33.38q.27.09.52.22a.5.5 0 0 0 .51 0l1.22-.87a.5.5 0 0 1 .64 0l.82.82a.5.5 0 0 1 .05.64l-.87 1.22a.5.5 0 0 0 0 .51q.13.25.22.52a.5.5 0 0 0 .38.33l1.48.25a.5.5 0 0 1 .42.49v1.17a.5.5 0 0 1-.42.49l-1.48.25a.5.5 0 0 0-.38.33q-.09.27-.22.52a.5.5 0 0 0 0 .51l.87 1.22a.5.5 0 0 1-.05.64l-.82.82a.5.5 0 0 1-.64.05l-1.22-.87a.5.5 0 0 0-.51 0q-.25.13-.52.22a.5.5 0 0 0-.33.38l-.25 1.48a.5.5 0 0 1-.49.42H7.42a.5.5 0 0 1-.49-.42l-.25-1.52a.5.5 0 0 0-.33-.38 3 3 0 0 1-.52-.22.5.5 0 0 0-.51 0l-1.22.87a.5.5 0 0 1-.64-.05l-.82-.82a.5.5 0 0 1 0-.64l.87-1.22a.5.5 0 0 0 0-.51 3 3 0 0 1-.22-.52.5.5 0 0 0-.38-.33l-1.49-.21A.5.5 0 0 1 1 8.58V7.42a.5.5 0 0 1 .42-.49l1.48-.25a.5.5 0 0 0 .38-.33q.09-.27.22-.52a.5.5 0 0 0 0-.51L2.59 4.1a.5.5 0 0 1 0-.64l.82-.82a.5.5 0 0 1 .64 0l1.22.87a.5.5 0 0 0 .51 0q.25-.13.52-.22a.5.5 0 0 0 .33-.38l.3-1.49A.5.5 0 0 1 7.42 1zM8 6a2 2 0 1 0 0 4 2 2 0 0 0 0-4"
    fill="currentColor" />
</svg>